<?xml version="1.0" encoding="utf-8"?>
<!-- Generator: Adobe Illustrator 22.0.1, SVG Export Plug-In . SVG Version: 6.00 Build 0)  -->
<svg version="1.1" xmlns="http://www.w3.org/2000/svg" xmlns:xlink="http://www.w3.org/1999/xlink" x="0px" y="0px"
	 viewBox="0 0 432 157.7" style="enable-background:new 0 0 432 157.7;" xml:space="preserve">
<style type="text/css">
	.st0{fill:#57068C;}
</style>
<g id="Capa_1">
	<g>
		<path class="st0" d="M116.3,44.7h10.8v2.7h-7.6v3.1h6.9v2.7h-6.9v3.2h7.9V59h-11.1V44.7z"/>
		<path class="st0" d="M135,50.5c-0.6-0.2-1.1-0.3-1.6-0.3c-0.4,0-0.7,0.1-0.9,0.2c-0.2,0.1-0.3,0.3-0.3,0.6c0,0.3,0.2,0.5,0.5,0.7
			c0.3,0.2,0.8,0.3,1.5,0.6c0.8,0.2,1.4,0.5,1.9,0.7s0.9,0.6,1.3,1c0.4,0.4,0.6,1,0.6,1.7c0,1.1-0.4,1.9-1.3,2.5
			c-0.8,0.6-1.9,0.9-3.2,0.9c-0.9,0-1.8-0.1-2.6-0.4c-0.8-0.3-1.5-0.6-2.2-1.1l1-2.1c0.6,0.4,1.2,0.8,1.9,1c0.7,0.2,1.3,0.4,1.9,0.4
			c0.4,0,0.8-0.1,1-0.2c0.3-0.1,0.4-0.4,0.4-0.6c0-0.3-0.2-0.6-0.5-0.7c-0.3-0.2-0.8-0.4-1.5-0.6c-0.7-0.2-1.4-0.4-1.9-0.7
			c-0.5-0.2-0.9-0.5-1.3-1c-0.4-0.4-0.5-1-0.5-1.7c0-1.1,0.4-1.9,1.2-2.5c0.8-0.6,1.8-0.9,3.1-0.9c0.7,0,1.5,0.1,2.2,0.3
			c0.7,0.2,1.4,0.5,2,0.9l-1.1,2.1C136.2,50.9,135.6,50.7,135,50.5z"/>
		<path class="st0" d="M145,50.6c-0.8,0-1.4,0.3-1.9,0.8c-0.5,0.5-0.7,1.2-0.7,2.1s0.2,1.6,0.7,2.1c0.5,0.6,1.1,0.8,1.9,0.8
			c1.1,0,2-0.4,2.5-1.3l2.2,1.5c-0.5,0.8-1.1,1.4-1.9,1.8c-0.8,0.4-1.8,0.6-2.9,0.6c-1.1,0-2.1-0.2-2.9-0.7s-1.5-1.1-2-2
			c-0.5-0.8-0.7-1.8-0.7-2.9c0-1.1,0.2-2.1,0.7-2.9c0.5-0.8,1.1-1.5,2-2c0.8-0.5,1.8-0.7,2.9-0.7c1,0,2,0.2,2.8,0.6s1.5,1,2,1.7
			l-2.1,1.5C146.8,51,146,50.6,145,50.6z"/>
		<path class="st0" d="M162.1,48v11H159v-1.9c-0.7,1.4-2,2.1-3.7,2.1c-1.2,0-2.2-0.4-2.9-1.1c-0.7-0.8-1.1-1.8-1.1-3.1V48h3.1v6
			c0,0.7,0.2,1.2,0.6,1.6c0.4,0.4,0.9,0.6,1.5,0.6c0.7,0,1.3-0.3,1.8-0.8c0.4-0.5,0.7-1.2,0.7-2V48H162.1z"/>
		<path class="st0" d="M174,49.5c0.9,1,1.4,2.4,1.4,4.3c0,0.3,0,0.6,0,0.7h-7.8c0.2,0.7,0.5,1.2,1,1.6c0.5,0.4,1.1,0.6,1.8,0.6
			c0.5,0,1-0.1,1.5-0.3c0.5-0.2,0.9-0.5,1.3-0.9l1.6,1.7c-0.6,0.6-1.2,1.1-2,1.4c-0.8,0.3-1.7,0.5-2.7,0.5c-1.2,0-2.2-0.2-3-0.7
			c-0.9-0.5-1.5-1.1-2-2c-0.5-0.8-0.7-1.8-0.7-2.9c0-1.1,0.2-2.1,0.7-2.9c0.5-0.8,1.1-1.5,2-2c0.9-0.5,1.8-0.7,2.9-0.7
			C171.7,47.9,173,48.5,174,49.5z M172.4,52.6c0-0.7-0.3-1.3-0.7-1.7c-0.4-0.4-1-0.7-1.7-0.7c-0.7,0-1.2,0.2-1.7,0.6s-0.7,1-0.9,1.7
			H172.4z"/>
		<path class="st0" d="M177.6,43.9h3.1V59h-3.1V43.9z"/>
		<path class="st0" d="M190.3,59v-1.3c-0.4,0.5-0.8,0.8-1.4,1.1c-0.6,0.2-1.3,0.4-2,0.4c-1.2,0-2.1-0.3-2.7-0.9
			c-0.7-0.6-1-1.5-1-2.5c0-1,0.4-1.8,1.1-2.4c0.7-0.6,1.8-0.9,3.1-0.9h3v-0.2c0-0.6-0.2-1-0.6-1.4c-0.4-0.3-1-0.5-1.7-0.5
			c-1,0-2.1,0.3-3.3,1l-1-2.2c0.9-0.4,1.7-0.8,2.4-1s1.6-0.3,2.5-0.3c1.5,0,2.6,0.3,3.4,1c0.8,0.7,1.2,1.7,1.2,2.9l0,7.1H190.3z
			 M189.4,56.4c0.5-0.3,0.8-0.7,0.8-1.2v-1h-2.5c-0.6,0-1.1,0.1-1.4,0.3s-0.4,0.5-0.4,0.9c0,0.4,0.2,0.8,0.5,1
			c0.3,0.3,0.7,0.4,1.2,0.4C188.4,56.9,189,56.7,189.4,56.4z"/>
		<path class="st0" d="M209.5,47.7c-0.8-0.3-1.5-0.4-2.1-0.4c-0.6,0-1,0.1-1.3,0.3c-0.3,0.2-0.5,0.5-0.5,0.9c0,0.5,0.2,0.9,0.7,1.2
			c0.5,0.3,1.2,0.5,2.2,0.8c1,0.3,1.8,0.6,2.4,0.9c0.6,0.3,1.2,0.7,1.6,1.3c0.4,0.6,0.7,1.3,0.7,2.3c0,0.9-0.2,1.7-0.7,2.4
			c-0.5,0.7-1.1,1.2-2,1.5c-0.8,0.3-1.8,0.5-2.9,0.5c-1.2,0-2.3-0.2-3.4-0.6c-1.1-0.4-2.1-1-2.9-1.7l1.3-2.6
			c0.7,0.6,1.5,1.2,2.5,1.6c0.9,0.4,1.8,0.6,2.6,0.6c0.7,0,1.2-0.1,1.6-0.4s0.6-0.6,0.6-1.1c0-0.4-0.1-0.7-0.4-0.9
			c-0.3-0.2-0.6-0.4-1-0.6c-0.4-0.1-0.9-0.3-1.6-0.5c-1-0.3-1.8-0.5-2.4-0.8c-0.6-0.3-1.2-0.7-1.6-1.2c-0.4-0.6-0.7-1.3-0.7-2.2
			c0-0.9,0.2-1.6,0.7-2.3c0.5-0.6,1.1-1.1,1.9-1.5c0.8-0.3,1.8-0.5,2.9-0.5c1,0,1.9,0.1,2.9,0.4c1,0.3,1.8,0.7,2.5,1.1l-1.2,2.7
			C211.1,48.3,210.3,47.9,209.5,47.7z"/>
		<path class="st0" d="M225.8,48v11h-3.1v-1.9c-0.7,1.4-2,2.1-3.7,2.1c-1.2,0-2.2-0.4-2.9-1.1c-0.7-0.8-1.1-1.8-1.1-3.1V48h3.1v6
			c0,0.7,0.2,1.2,0.6,1.6c0.4,0.4,0.9,0.6,1.5,0.6c0.7,0,1.3-0.3,1.8-0.8c0.4-0.5,0.7-1.2,0.7-2V48H225.8z"/>
		<path class="st0" d="M238.4,48.6c0.8,0.5,1.4,1.1,1.8,2c0.4,0.9,0.6,1.8,0.6,3c0,1.1-0.2,2.1-0.6,2.9c-0.4,0.8-1,1.5-1.8,1.9
			c-0.8,0.5-1.7,0.7-2.7,0.7c-0.8,0-1.4-0.1-2-0.4c-0.6-0.3-1.1-0.7-1.5-1.3v5.5h-3.1V48h3.1v1.6c0.4-0.6,0.9-1,1.5-1.3
			s1.3-0.4,2-0.4C236.7,47.9,237.6,48.2,238.4,48.6z M236.9,55.7c0.5-0.6,0.8-1.3,0.8-2.2c0-0.9-0.3-1.6-0.8-2.2
			c-0.5-0.6-1.2-0.8-1.9-0.8c-0.8,0-1.5,0.3-2,0.8c-0.5,0.6-0.8,1.3-0.8,2.2c0,0.9,0.3,1.6,0.8,2.2c0.5,0.6,1.2,0.8,2,0.8
			C235.7,56.5,236.4,56.2,236.9,55.7z"/>
		<path class="st0" d="M251.7,49.5c0.9,1,1.4,2.4,1.4,4.3c0,0.3,0,0.6,0,0.7h-7.8c0.2,0.7,0.5,1.2,1,1.6c0.5,0.4,1.1,0.6,1.8,0.6
			c0.5,0,1-0.1,1.5-0.3c0.5-0.2,0.9-0.5,1.3-0.9l1.6,1.7c-0.6,0.6-1.2,1.1-2,1.4c-0.8,0.3-1.7,0.5-2.7,0.5c-1.2,0-2.2-0.2-3-0.7
			c-0.9-0.5-1.5-1.1-2-2c-0.5-0.8-0.7-1.8-0.7-2.9c0-1.1,0.2-2.1,0.7-2.9c0.5-0.8,1.1-1.5,2-2c0.9-0.5,1.8-0.7,2.9-0.7
			C249.4,47.9,250.8,48.5,251.7,49.5z M250.1,52.6c0-0.7-0.3-1.3-0.7-1.7c-0.4-0.4-1-0.7-1.7-0.7c-0.7,0-1.2,0.2-1.7,0.6
			s-0.7,1-0.9,1.7H250.1z"/>
		<path class="st0" d="M259.8,48.5c0.6-0.4,1.3-0.5,2.1-0.5v3c-0.1,0-0.3,0-0.5,0c-1,0-1.7,0.3-2.3,0.8c-0.6,0.5-0.8,1.2-0.8,2.1V59
			h-3.1V48h3.1v2C258.7,49.3,259.2,48.8,259.8,48.5z"/>
		<path class="st0" d="M266.6,43.7c0.3,0.3,0.5,0.7,0.5,1.3s-0.2,0.9-0.5,1.3c-0.3,0.3-0.7,0.5-1.2,0.5c-0.5,0-0.9-0.2-1.2-0.5
			c-0.3-0.3-0.5-0.7-0.5-1.3c0-0.5,0.2-0.9,0.5-1.3c0.3-0.3,0.7-0.5,1.2-0.5C265.8,43.2,266.3,43.4,266.6,43.7z M263.8,48h3.1v11
			h-3.1V48z"/>
		<path class="st0" d="M278,48.6c0.9,0.5,1.6,1.1,2.1,2s0.7,1.8,0.7,2.9c0,1.1-0.2,2.1-0.7,2.9c-0.5,0.8-1.2,1.5-2.1,2
			c-0.9,0.5-1.9,0.7-3.1,0.7c-1.2,0-2.2-0.2-3.1-0.7c-0.9-0.5-1.6-1.1-2.1-2c-0.5-0.8-0.7-1.8-0.7-2.9c0-1.1,0.2-2.1,0.7-2.9
			s1.2-1.5,2.1-2s1.9-0.7,3.1-0.7C276.1,47.9,277.1,48.2,278,48.6z M273,51.4c-0.5,0.6-0.8,1.3-0.8,2.2c0,0.9,0.3,1.6,0.8,2.2
			c0.5,0.6,1.2,0.8,2,0.8c0.8,0,1.5-0.3,2-0.8c0.5-0.6,0.8-1.3,0.8-2.2c0-0.9-0.3-1.6-0.8-2.2s-1.2-0.8-2-0.8
			C274.2,50.6,273.5,50.8,273,51.4z"/>
		<path class="st0" d="M287.6,48.5c0.6-0.4,1.3-0.5,2.1-0.5v3c-0.1,0-0.3,0-0.5,0c-1,0-1.7,0.3-2.3,0.8c-0.6,0.5-0.8,1.2-0.8,2.1V59
			H283V48h3.1v2C286.5,49.3,287,48.8,287.6,48.5z"/>
		<path class="st0" d="M127,69.7v15.1h-3.1v-1.6c-0.4,0.6-0.9,1-1.5,1.3c-0.6,0.3-1.2,0.4-2,0.4c-1,0-1.9-0.2-2.7-0.7
			c-0.8-0.5-1.4-1.1-1.8-2c-0.4-0.9-0.6-1.8-0.6-3c0-1.1,0.2-2.1,0.6-2.9s1-1.5,1.8-2c0.8-0.5,1.7-0.7,2.7-0.7
			c1.5,0,2.7,0.6,3.5,1.7v-5.8H127z M123.1,81.5c0.5-0.6,0.8-1.3,0.8-2.2c0-0.9-0.3-1.6-0.8-2.2c-0.5-0.6-1.2-0.8-2-0.8
			c-0.8,0-1.5,0.3-2,0.8c-0.5,0.6-0.8,1.3-0.8,2.2c0,0.9,0.3,1.6,0.8,2.2c0.5,0.6,1.2,0.8,2,0.8C122,82.4,122.6,82.1,123.1,81.5z"/>
		<path class="st0" d="M139,75.3c0.9,1,1.4,2.4,1.4,4.3c0,0.3,0,0.6,0,0.7h-7.8c0.2,0.7,0.5,1.2,1,1.6c0.5,0.4,1.1,0.6,1.8,0.6
			c0.5,0,1-0.1,1.5-0.3c0.5-0.2,0.9-0.5,1.3-0.9l1.6,1.7c-0.6,0.6-1.2,1.1-2,1.4c-0.8,0.3-1.7,0.5-2.7,0.5c-1.2,0-2.2-0.2-3-0.7
			c-0.9-0.5-1.5-1.1-2-2c-0.5-0.8-0.7-1.8-0.7-2.9c0-1.1,0.2-2.1,0.7-2.9c0.5-0.8,1.1-1.5,2-2c0.9-0.5,1.8-0.7,2.9-0.7
			C136.7,73.7,138,74.3,139,75.3z M137.4,78.4c0-0.7-0.3-1.3-0.7-1.7c-0.4-0.4-1-0.7-1.7-0.7c-0.7,0-1.2,0.2-1.7,0.6s-0.7,1-0.9,1.7
			H137.4z"/>
		<path class="st0" d="M148.8,70.5h3.2v14.2h-3.2V70.5z"/>
		<path class="st0" d="M165,74.9c0.7,0.8,1.1,1.8,1.1,3.1v6.9H163v-6c0-0.7-0.2-1.2-0.6-1.6c-0.4-0.4-0.9-0.6-1.6-0.6
			c-0.8,0-1.4,0.3-1.8,0.8c-0.4,0.5-0.7,1.2-0.7,2v5.4h-3.1v-11h3.1v1.9c0.8-1.3,2-2,3.8-2C163.3,73.7,164.3,74.1,165,74.9z"/>
		<path class="st0" d="M179.2,73.8v9.9c0,1-0.2,1.9-0.7,2.7c-0.5,0.8-1.2,1.4-2.1,1.8s-1.9,0.6-3.1,0.6c-0.9,0-1.7-0.1-2.6-0.4
			c-0.8-0.3-1.5-0.6-2.2-1.1l1.2-2.2c1,0.7,2.2,1.1,3.4,1.1c0.9,0,1.6-0.2,2.1-0.7c0.5-0.4,0.8-1,0.8-1.8v-1.2
			c-0.4,0.5-0.8,0.9-1.4,1.2s-1.2,0.4-1.9,0.4c-0.9,0-1.8-0.2-2.5-0.7c-0.7-0.4-1.3-1.1-1.7-1.9c-0.4-0.8-0.6-1.7-0.6-2.8
			c0-1,0.2-1.9,0.6-2.7c0.4-0.8,1-1.4,1.7-1.8c0.7-0.4,1.6-0.7,2.5-0.7c0.7,0,1.3,0.1,1.9,0.4c0.6,0.3,1,0.7,1.4,1.2v-1.5H179.2z
			 M175.3,81.1c0.5-0.5,0.7-1.2,0.7-2c0-0.8-0.2-1.5-0.7-2.1c-0.5-0.5-1.1-0.8-1.9-0.8s-1.4,0.3-1.9,0.8c-0.5,0.5-0.7,1.2-0.7,2.1
			c0,0.8,0.3,1.5,0.7,2c0.5,0.5,1.1,0.8,1.9,0.8C174.2,81.8,174.9,81.6,175.3,81.1z"/>
		<path class="st0" d="M190.8,75.3c0.9,1,1.4,2.4,1.4,4.3c0,0.3,0,0.6,0,0.7h-7.8c0.2,0.7,0.5,1.2,1,1.6c0.5,0.4,1.1,0.6,1.8,0.6
			c0.5,0,1-0.1,1.5-0.3c0.5-0.2,0.9-0.5,1.3-0.9l1.6,1.7c-0.6,0.6-1.2,1.1-2,1.4c-0.8,0.3-1.7,0.5-2.7,0.5c-1.2,0-2.2-0.2-3-0.7
			c-0.9-0.5-1.5-1.1-2-2c-0.5-0.8-0.7-1.8-0.7-2.9c0-1.1,0.2-2.1,0.7-2.9c0.5-0.8,1.1-1.5,2-2c0.9-0.5,1.8-0.7,2.9-0.7
			C188.6,73.7,189.9,74.3,190.8,75.3z M189.3,78.4c0-0.7-0.3-1.3-0.7-1.7c-0.4-0.4-1-0.7-1.7-0.7c-0.7,0-1.2,0.2-1.7,0.6
			s-0.7,1-0.9,1.7H189.3z"/>
		<path class="st0" d="M204.2,74.9c0.7,0.8,1.1,1.8,1.1,3.1v6.9h-3.1v-6c0-0.7-0.2-1.2-0.6-1.6c-0.4-0.4-0.9-0.6-1.6-0.6
			c-0.8,0-1.4,0.3-1.8,0.8c-0.4,0.5-0.7,1.2-0.7,2v5.4h-3.1v-11h3.1v1.9c0.8-1.3,2-2,3.8-2C202.5,73.7,203.5,74.1,204.2,74.9z"/>
		<path class="st0" d="M210.9,69.5c0.3,0.3,0.5,0.7,0.5,1.3s-0.2,0.9-0.5,1.3c-0.3,0.3-0.7,0.5-1.2,0.5c-0.5,0-0.9-0.2-1.2-0.5
			c-0.3-0.3-0.5-0.7-0.5-1.3c0-0.5,0.2-0.9,0.5-1.3c0.3-0.3,0.7-0.5,1.2-0.5C210.2,69,210.6,69.2,210.9,69.5z M208.1,73.8h3.1v11
			h-3.1V73.8z"/>
		<path class="st0" d="M223.1,75.3c0.9,1,1.4,2.4,1.4,4.3c0,0.3,0,0.6,0,0.7h-7.8c0.2,0.7,0.5,1.2,1,1.6c0.5,0.4,1.1,0.6,1.8,0.6
			c0.5,0,1-0.1,1.5-0.3c0.5-0.2,0.9-0.5,1.3-0.9l1.6,1.7c-0.6,0.6-1.2,1.1-2,1.4c-0.8,0.3-1.7,0.5-2.7,0.5c-1.2,0-2.2-0.2-3-0.7
			c-0.9-0.5-1.5-1.1-2-2c-0.5-0.8-0.7-1.8-0.7-2.9c0-1.1,0.2-2.1,0.7-2.9c0.5-0.8,1.1-1.5,2-2c0.9-0.5,1.8-0.7,2.9-0.7
			C220.8,73.7,222.1,74.3,223.1,75.3z M221.5,78.4c0-0.7-0.3-1.3-0.7-1.7c-0.4-0.4-1-0.7-1.7-0.7c-0.7,0-1.2,0.2-1.7,0.6
			s-0.7,1-0.9,1.7H221.5z"/>
		<path class="st0" d="M231.2,74.3c0.6-0.4,1.3-0.5,2.1-0.5v3c-0.1,0-0.3,0-0.5,0c-1,0-1.7,0.3-2.3,0.8c-0.6,0.5-0.8,1.2-0.8,2.1
			v5.3h-3.1v-11h3.1v2C230.1,75.1,230.6,74.6,231.2,74.3z"/>
		<path class="st0" d="M237.4,69.2l2.8,1.1l-2.8,2.2l-2.3-0.2L237.4,69.2z M235.1,73.8h3.1v11h-3.1V73.8z"/>
		<path class="st0" d="M247.7,84.8v-1.3c-0.4,0.5-0.8,0.8-1.4,1.1c-0.6,0.2-1.3,0.4-2,0.4c-1.2,0-2.1-0.3-2.7-0.9
			c-0.7-0.6-1-1.5-1-2.5c0-1,0.4-1.8,1.1-2.4c0.7-0.6,1.8-0.9,3.1-0.9h3V78c0-0.6-0.2-1-0.6-1.4c-0.4-0.3-1-0.5-1.7-0.5
			c-1,0-2.1,0.3-3.3,1l-1-2.2c0.9-0.4,1.7-0.8,2.4-1s1.6-0.3,2.5-0.3c1.5,0,2.6,0.3,3.4,1c0.8,0.7,1.2,1.7,1.2,2.9l0,7.1H247.7z
			 M246.9,82.2c0.5-0.3,0.8-0.7,0.8-1.2v-1h-2.5c-0.6,0-1.1,0.1-1.4,0.3s-0.4,0.5-0.4,0.9c0,0.4,0.2,0.8,0.5,1
			c0.3,0.3,0.7,0.4,1.2,0.4C245.8,82.7,246.4,82.5,246.9,82.2z"/>
		<path class="st0" d="M261.1,88.9c-0.6,0-1.1-0.1-1.6-0.3c-0.5-0.2-0.9-0.4-1.4-0.8l1.3-2.3c0.5,0.4,1,0.6,1.4,0.6
			c0.7,0,1.1-0.3,1.5-1l0.3-0.6l-4.5-10.7h3.2l2.9,7.5l2.6-7.5h3.1L265.1,86C264.4,87.9,263,88.9,261.1,88.9z"/>
		<path class="st0" d="M276.2,70.5h11.9v2.7h-4.4v11.5h-3.2V73.3h-4.3V70.5z"/>
		<path class="st0" d="M297.3,75.3c0.9,1,1.4,2.4,1.4,4.3c0,0.3,0,0.6,0,0.7h-7.8c0.2,0.7,0.5,1.2,1,1.6c0.5,0.4,1.1,0.6,1.8,0.6
			c0.5,0,1-0.1,1.5-0.3c0.5-0.2,0.9-0.5,1.3-0.9L298,83c-0.6,0.6-1.2,1.1-2,1.4c-0.8,0.3-1.7,0.5-2.7,0.5c-1.2,0-2.2-0.2-3-0.7
			c-0.9-0.5-1.5-1.1-2-2c-0.5-0.8-0.7-1.8-0.7-2.9c0-1.1,0.2-2.1,0.7-2.9c0.5-0.8,1.1-1.5,2-2c0.9-0.5,1.8-0.7,2.9-0.7
			C295,73.7,296.4,74.3,297.3,75.3z M295.7,78.4c0-0.7-0.3-1.3-0.7-1.7c-0.4-0.4-1-0.7-1.7-0.7c-0.7,0-1.2,0.2-1.7,0.6
			s-0.7,1-0.9,1.7H295.7z"/>
		<path class="st0" d="M305.7,76.4c-0.8,0-1.4,0.3-1.9,0.8c-0.5,0.5-0.7,1.2-0.7,2.1s0.2,1.6,0.7,2.1c0.5,0.5,1.1,0.8,1.9,0.8
			c1.1,0,2-0.4,2.5-1.3l2.2,1.5c-0.5,0.8-1.1,1.4-1.9,1.8c-0.8,0.4-1.8,0.6-2.9,0.6c-1.1,0-2.1-0.2-2.9-0.7c-0.8-0.5-1.5-1.1-2-2
			c-0.5-0.8-0.7-1.8-0.7-2.9c0-1.1,0.2-2.1,0.7-2.9c0.5-0.8,1.1-1.5,2-2c0.8-0.5,1.8-0.7,2.9-0.7c1,0,2,0.2,2.8,0.6s1.5,1,2,1.7
			l-2.1,1.5C307.5,76.8,306.7,76.4,305.7,76.4z"/>
		<path class="st0" d="M322.2,74.9c0.7,0.8,1.1,1.8,1.1,3.1v6.9h-3.1v-6c0-0.7-0.2-1.2-0.6-1.6c-0.4-0.4-0.9-0.6-1.6-0.6
			c-0.8,0-1.4,0.3-1.8,0.8c-0.4,0.5-0.7,1.2-0.7,2v5.4h-3.1v-11h3.1v1.9c0.8-1.3,2-2,3.8-2C320.5,73.7,321.5,74.1,322.2,74.9z"/>
		<path class="st0" d="M334.1,74.4c0.9,0.5,1.6,1.1,2.1,2s0.7,1.8,0.7,2.9c0,1.1-0.2,2.1-0.7,2.9c-0.5,0.8-1.2,1.5-2.1,2
			c-0.9,0.5-1.9,0.7-3.1,0.7c-1.2,0-2.2-0.2-3.1-0.7s-1.6-1.1-2.1-2c-0.5-0.8-0.7-1.8-0.7-2.9c0-1.1,0.2-2.1,0.7-2.9s1.2-1.5,2.1-2
			s1.9-0.7,3.1-0.7C332.2,73.7,333.2,74,334.1,74.4z M329.1,77.2c-0.5,0.6-0.8,1.3-0.8,2.2c0,0.9,0.3,1.6,0.8,2.2s1.2,0.8,2,0.8
			c0.8,0,1.5-0.3,2-0.8s0.8-1.3,0.8-2.2c0-0.9-0.3-1.6-0.8-2.2s-1.2-0.8-2-0.8C330.2,76.4,329.6,76.6,329.1,77.2z"/>
		<path class="st0" d="M339.2,69.7h3.1v15.1h-3.1V69.7z"/>
		<path class="st0" d="M353.6,74.4c0.9,0.5,1.6,1.1,2.1,2s0.7,1.8,0.7,2.9c0,1.1-0.2,2.1-0.7,2.9c-0.5,0.8-1.2,1.5-2.1,2
			c-0.9,0.5-1.9,0.7-3.1,0.7c-1.2,0-2.2-0.2-3.1-0.7s-1.6-1.1-2.1-2c-0.5-0.8-0.7-1.8-0.7-2.9c0-1.1,0.2-2.1,0.7-2.9s1.2-1.5,2.1-2
			s1.9-0.7,3.1-0.7C351.7,73.7,352.7,74,353.6,74.4z M348.5,77.2c-0.5,0.6-0.8,1.3-0.8,2.2c0,0.9,0.3,1.6,0.8,2.2s1.2,0.8,2,0.8
			c0.8,0,1.5-0.3,2-0.8s0.8-1.3,0.8-2.2c0-0.9-0.3-1.6-0.8-2.2s-1.2-0.8-2-0.8C349.7,76.4,349,76.6,348.5,77.2z"/>
		<path class="st0" d="M368.8,73.8v9.9c0,1-0.2,1.9-0.7,2.7c-0.5,0.8-1.2,1.4-2.1,1.8s-1.9,0.6-3.1,0.6c-0.9,0-1.7-0.1-2.6-0.4
			c-0.8-0.3-1.5-0.6-2.2-1.1l1.2-2.2c1,0.7,2.2,1.1,3.4,1.1c0.9,0,1.6-0.2,2.1-0.7c0.5-0.4,0.8-1,0.8-1.8v-1.2
			c-0.4,0.5-0.8,0.9-1.4,1.2s-1.2,0.4-1.9,0.4c-0.9,0-1.8-0.2-2.5-0.7c-0.7-0.4-1.3-1.1-1.7-1.9c-0.4-0.8-0.6-1.7-0.6-2.8
			c0-1,0.2-1.9,0.6-2.7c0.4-0.8,1-1.4,1.7-1.8c0.7-0.4,1.6-0.7,2.5-0.7c0.7,0,1.3,0.1,1.9,0.4c0.6,0.3,1,0.7,1.4,1.2v-1.5H368.8z
			 M365,81.1c0.5-0.5,0.7-1.2,0.7-2c0-0.8-0.2-1.5-0.7-2.1c-0.5-0.5-1.1-0.8-1.9-0.8s-1.4,0.3-1.9,0.8c-0.5,0.5-0.7,1.2-0.7,2.1
			c0,0.8,0.3,1.5,0.7,2c0.5,0.5,1.1,0.8,1.9,0.8C363.9,81.8,364.5,81.6,365,81.1z"/>
		<path class="st0" d="M374,69.2l2.8,1.1l-2.8,2.2l-2.3-0.2L374,69.2z M371.8,73.8h3.1v11h-3.1V73.8z"/>
		<path class="st0" d="M384.4,84.8v-1.3c-0.4,0.5-0.8,0.8-1.4,1.1c-0.6,0.2-1.3,0.4-2,0.4c-1.2,0-2.1-0.3-2.7-0.9
			c-0.7-0.6-1-1.5-1-2.5c0-1,0.4-1.8,1.1-2.4c0.7-0.6,1.8-0.9,3.1-0.9h3V78c0-0.6-0.2-1-0.6-1.4c-0.4-0.3-1-0.5-1.7-0.5
			c-1,0-2.1,0.3-3.3,1l-1-2.2c0.9-0.4,1.7-0.8,2.4-1s1.6-0.3,2.5-0.3c1.5,0,2.6,0.3,3.4,1c0.8,0.7,1.2,1.7,1.2,2.9l0,7.1H384.4z
			 M383.5,82.2c0.5-0.3,0.8-0.7,0.8-1.2v-1h-2.5c-0.6,0-1.1,0.1-1.4,0.3s-0.4,0.5-0.4,0.9c0,0.4,0.2,0.8,0.5,1
			c0.3,0.3,0.7,0.4,1.2,0.4C382.4,82.7,383,82.5,383.5,82.2z"/>
		<path class="st0" d="M119.3,110.7c0.8,0.8,1.8,1.2,3.2,1.2c1.3,0,2.4-0.4,3.2-1.2c0.8-0.8,1.2-1.9,1.2-3.3V99h1.6v8.4
			c0,1.8-0.5,3.3-1.6,4.3s-2.5,1.6-4.4,1.6s-3.3-0.5-4.4-1.6s-1.6-2.5-1.6-4.3V99h1.6v8.4C118.2,108.8,118.6,109.9,119.3,110.7z"/>
		<path class="st0" d="M141,103.5c0.7,0.7,1.1,1.8,1.1,3.1v6.6h-1.6V107c0-0.9-0.3-1.7-0.8-2.2c-0.5-0.5-1.3-0.8-2.2-0.8
			c-1,0-1.9,0.3-2.5,1c-0.6,0.6-1,1.5-1.1,2.5v5.7h-1.6v-10.7h1.6v2.4c0.7-1.6,2.1-2.4,4.2-2.4C139.3,102.4,140.3,102.8,141,103.5z"
			/>
		<path class="st0" d="M147.3,98.6c0.2,0.2,0.3,0.5,0.3,0.8c0,0.3-0.1,0.6-0.3,0.8c-0.2,0.2-0.4,0.3-0.7,0.3c-0.3,0-0.5-0.1-0.7-0.3
			c-0.2-0.2-0.3-0.5-0.3-0.8s0.1-0.6,0.3-0.8c0.2-0.2,0.4-0.3,0.7-0.3C146.8,98.3,147.1,98.4,147.3,98.6z M145.8,102.5h1.6v10.7
			h-1.6V102.5z"/>
		<path class="st0" d="M149.4,102.5h1.7l3.4,9.1l3.4-9.1h1.6l-4.2,10.7h-1.6L149.4,102.5z"/>
		<path class="st0" d="M169.2,104.1c0.9,1.1,1.2,2.5,1.2,4.4h-8.7c0.1,1.1,0.6,1.9,1.3,2.5c0.7,0.6,1.6,1,2.6,1
			c0.6,0,1.3-0.1,1.8-0.4c0.6-0.2,1.1-0.6,1.5-1l0.9,0.9c-0.5,0.6-1.1,1-1.9,1.3c-0.7,0.3-1.5,0.5-2.4,0.5c-1,0-2-0.2-2.8-0.7
			c-0.8-0.5-1.4-1.1-1.9-1.9s-0.7-1.8-0.7-2.8c0-1,0.2-2,0.7-2.8s1.1-1.5,1.9-1.9c0.8-0.5,1.7-0.7,2.8-0.7
			C167.1,102.4,168.4,103,169.2,104.1z M169,107.2c-0.1-1-0.4-1.9-1-2.5c-0.6-0.6-1.5-0.9-2.5-0.9c-1,0-1.9,0.3-2.6,0.9
			c-0.7,0.6-1.1,1.4-1.2,2.5H169z"/>
		<path class="st0" d="M176.3,103.1c0.6-0.4,1.4-0.6,2.3-0.6v1.5c-1.1,0-2,0.3-2.7,0.9c-0.7,0.6-1.1,1.5-1.2,2.6v5.7h-1.6v-10.7h1.6
			v2.4C175.2,104.1,175.7,103.5,176.3,103.1z"/>
		<path class="st0" d="M185.1,104c-0.5-0.1-1-0.2-1.5-0.2c-0.6,0-1.1,0.1-1.5,0.4c-0.4,0.2-0.6,0.6-0.6,1.1c0,0.3,0.1,0.6,0.3,0.8
			s0.5,0.4,0.8,0.5c0.3,0.1,0.8,0.3,1.3,0.5c0.7,0.2,1.4,0.5,1.8,0.7s0.9,0.5,1.2,0.9c0.3,0.4,0.5,0.9,0.5,1.6c0,1-0.4,1.7-1.1,2.3
			c-0.8,0.5-1.7,0.8-2.8,0.8c-0.8,0-1.5-0.1-2.3-0.4c-0.7-0.3-1.4-0.6-1.9-1.1l0.6-1.2c0.5,0.4,1,0.7,1.6,1s1.3,0.4,1.9,0.4
			c0.7,0,1.2-0.1,1.7-0.4c0.4-0.3,0.6-0.7,0.6-1.2c0-0.5-0.2-0.9-0.6-1.2c-0.4-0.3-1.1-0.5-1.9-0.8c-0.7-0.2-1.3-0.4-1.7-0.6
			c-0.4-0.2-0.8-0.5-1.1-0.9c-0.3-0.4-0.5-0.9-0.5-1.6c0-1,0.4-1.7,1.1-2.2c0.7-0.5,1.6-0.7,2.7-0.7c0.6,0,1.2,0.1,1.8,0.3
			s1.1,0.4,1.6,0.7l-0.6,1.2C186.1,104.3,185.7,104.1,185.1,104z"/>
		<path class="st0" d="M191.7,98.6c0.2,0.2,0.3,0.5,0.3,0.8c0,0.3-0.1,0.6-0.3,0.8c-0.2,0.2-0.4,0.3-0.7,0.3c-0.3,0-0.5-0.1-0.7-0.3
			c-0.2-0.2-0.3-0.5-0.3-0.8s0.1-0.6,0.3-0.8c0.2-0.2,0.4-0.3,0.7-0.3C191.3,98.3,191.5,98.4,191.7,98.6z M190.2,102.5h1.6v10.7
			h-1.6V102.5z"/>
		<path class="st0" d="M205.6,98.1v15.1H204v-2.3c-0.4,0.8-1,1.3-1.7,1.8c-0.7,0.4-1.5,0.6-2.5,0.6c-1,0-1.9-0.2-2.7-0.7
			c-0.8-0.5-1.4-1.1-1.8-1.9c-0.4-0.8-0.7-1.8-0.7-2.8c0-1.1,0.2-2,0.7-2.8c0.4-0.8,1-1.5,1.8-1.9c0.8-0.5,1.7-0.7,2.7-0.7
			c0.9,0,1.8,0.2,2.5,0.6c0.7,0.4,1.3,1,1.7,1.8v-6.7H205.6z M202.1,111.4c0.6-0.3,1-0.8,1.4-1.4s0.5-1.3,0.5-2.1
			c0-0.8-0.2-1.5-0.5-2.1c-0.3-0.6-0.8-1.1-1.4-1.5c-0.6-0.3-1.2-0.5-2-0.5c-0.7,0-1.4,0.2-2,0.5s-1,0.8-1.4,1.5s-0.5,1.3-0.5,2.1
			c0,0.8,0.2,1.5,0.5,2.1s0.8,1.1,1.4,1.4c0.6,0.3,1.3,0.5,2,0.5C200.9,111.9,201.5,111.7,202.1,111.4z"/>
		<path class="st0" d="M216.3,113.2v-1.7c-0.9,1.2-2.2,1.7-3.9,1.7c-0.7,0-1.4-0.1-1.9-0.4c-0.6-0.3-1-0.7-1.3-1.2
			c-0.3-0.5-0.5-1-0.5-1.6c0-0.9,0.4-1.7,1.1-2.2c0.7-0.6,1.7-0.8,3-0.8h3.5v-0.7c0-0.8-0.2-1.4-0.7-1.9c-0.5-0.4-1.2-0.7-2.1-0.7
			c-1.1,0-2.2,0.4-3.4,1.2l-0.7-1.1c0.8-0.5,1.5-0.9,2.1-1.1s1.4-0.3,2.3-0.3c1.3,0,2.3,0.3,3,1s1.1,1.5,1.1,2.7l0,7.1H216.3z
			 M215,111.3c0.6-0.4,1.1-1,1.3-1.8v-1.3h-3.3c-1.8,0-2.7,0.6-2.7,1.7c0,0.6,0.2,1.1,0.7,1.4c0.4,0.4,1,0.5,1.8,0.5
			C213.6,111.9,214.4,111.7,215,111.3z"/>
		<path class="st0" d="M231.3,98.1v15.1h-1.6v-2.3c-0.4,0.8-1,1.3-1.7,1.8c-0.7,0.4-1.5,0.6-2.5,0.6c-1,0-1.9-0.2-2.7-0.7
			c-0.8-0.5-1.4-1.1-1.8-1.9c-0.4-0.8-0.7-1.8-0.7-2.8c0-1.1,0.2-2,0.7-2.8c0.4-0.8,1-1.5,1.8-1.9c0.8-0.5,1.7-0.7,2.7-0.7
			c0.9,0,1.8,0.2,2.5,0.6c0.7,0.4,1.3,1,1.7,1.8v-6.7H231.3z M227.9,111.4c0.6-0.3,1-0.8,1.4-1.4s0.5-1.3,0.5-2.1
			c0-0.8-0.2-1.5-0.5-2.1c-0.3-0.6-0.8-1.1-1.4-1.5c-0.6-0.3-1.2-0.5-2-0.5c-0.7,0-1.4,0.2-2,0.5s-1,0.8-1.4,1.5s-0.5,1.3-0.5,2.1
			c0,0.8,0.2,1.5,0.5,2.1s0.8,1.1,1.4,1.4c0.6,0.3,1.3,0.5,2,0.5C226.6,111.9,227.3,111.7,227.9,111.4z"/>
		<path class="st0" d="M251.4,98.1v15.1h-1.6v-2.3c-0.4,0.8-1,1.3-1.7,1.8c-0.7,0.4-1.5,0.6-2.5,0.6c-1,0-1.9-0.2-2.7-0.7
			c-0.8-0.5-1.4-1.1-1.8-1.9c-0.4-0.8-0.7-1.8-0.7-2.8c0-1.1,0.2-2,0.7-2.8c0.4-0.8,1-1.5,1.8-1.9c0.8-0.5,1.7-0.7,2.7-0.7
			c0.9,0,1.8,0.2,2.5,0.6c0.7,0.4,1.3,1,1.7,1.8v-6.7H251.4z M248,111.4c0.6-0.3,1-0.8,1.4-1.4s0.5-1.3,0.5-2.1
			c0-0.8-0.2-1.5-0.5-2.1c-0.3-0.6-0.8-1.1-1.4-1.5c-0.6-0.3-1.2-0.5-2-0.5c-0.7,0-1.4,0.2-2,0.5s-1,0.8-1.4,1.5s-0.5,1.3-0.5,2.1
			c0,0.8,0.2,1.5,0.5,2.1s0.8,1.1,1.4,1.4c0.6,0.3,1.3,0.5,2,0.5C246.7,111.9,247.4,111.7,248,111.4z"/>
		<path class="st0" d="M263.6,104.1c0.9,1.1,1.2,2.5,1.2,4.4H256c0.1,1.1,0.6,1.9,1.3,2.5c0.7,0.6,1.6,1,2.6,1
			c0.6,0,1.3-0.1,1.8-0.4c0.6-0.2,1.1-0.6,1.5-1l0.9,0.9c-0.5,0.6-1.1,1-1.9,1.3c-0.7,0.3-1.5,0.5-2.4,0.5c-1,0-2-0.2-2.8-0.7
			c-0.8-0.5-1.4-1.1-1.9-1.9s-0.7-1.8-0.7-2.8c0-1,0.2-2,0.7-2.8s1.1-1.5,1.9-1.9c0.8-0.5,1.7-0.7,2.8-0.7
			C261.4,102.4,262.7,103,263.6,104.1z M263.3,107.2c-0.1-1-0.4-1.9-1-2.5c-0.6-0.6-1.5-0.9-2.5-0.9c-1,0-1.9,0.3-2.6,0.9
			c-0.7,0.6-1.1,1.4-1.2,2.5H263.3z"/>
		<path class="st0" d="M274,99h1.6v12.7h6.2v1.5H274V99z"/>
		<path class="st0" d="M291,113.2v-1.7c-0.9,1.2-2.2,1.7-3.9,1.7c-0.7,0-1.4-0.1-1.9-0.4c-0.6-0.3-1-0.7-1.3-1.2
			c-0.3-0.5-0.5-1-0.5-1.6c0-0.9,0.4-1.7,1.1-2.2c0.7-0.6,1.7-0.8,3-0.8h3.5v-0.7c0-0.8-0.2-1.4-0.7-1.9c-0.5-0.4-1.2-0.7-2.1-0.7
			c-1.1,0-2.2,0.4-3.4,1.2l-0.7-1.1c0.8-0.5,1.5-0.9,2.1-1.1s1.4-0.3,2.3-0.3c1.3,0,2.3,0.3,3,1s1.1,1.5,1.1,2.7l0,7.1H291z
			 M289.7,111.3c0.6-0.4,1.1-1,1.3-1.8v-1.3h-3.3c-1.8,0-2.7,0.6-2.7,1.7c0,0.6,0.2,1.1,0.7,1.4c0.4,0.4,1,0.5,1.8,0.5
			C288.3,111.9,289.1,111.7,289.7,111.3z"/>
		<path class="st0" d="M302.6,99h1.6v12.7h6.2v1.5h-7.9V99z"/>
		<path class="st0" d="M319.7,113.2v-1.7c-0.9,1.2-2.2,1.7-3.9,1.7c-0.7,0-1.4-0.1-1.9-0.4c-0.6-0.3-1-0.7-1.3-1.2
			c-0.3-0.5-0.5-1-0.5-1.6c0-0.9,0.4-1.7,1.1-2.2c0.7-0.6,1.7-0.8,3-0.8h3.5v-0.7c0-0.8-0.2-1.4-0.7-1.9c-0.5-0.4-1.2-0.7-2.1-0.7
			c-1.1,0-2.2,0.4-3.4,1.2l-0.7-1.1c0.8-0.5,1.5-0.9,2.1-1.1s1.4-0.3,2.3-0.3c1.3,0,2.3,0.3,3,1s1.1,1.5,1.1,2.7l0,7.1H319.7z
			 M318.4,111.3c0.6-0.4,1.1-1,1.3-1.8v-1.3h-3.3c-1.8,0-2.7,0.6-2.7,1.7c0,0.6,0.2,1.1,0.7,1.4c0.4,0.4,1,0.5,1.8,0.5
			C317,111.9,317.8,111.7,318.4,111.3z"/>
		<path class="st0" d="M334.2,102.5v9.6c0,1-0.2,1.9-0.7,2.7c-0.5,0.8-1.1,1.4-1.9,1.8s-1.8,0.6-2.8,0.6c-1.6,0-3-0.5-4.4-1.6
			l0.7-1.2c0.5,0.5,1.1,0.8,1.7,1c0.6,0.2,1.2,0.3,1.9,0.3c1.2,0,2.1-0.3,2.8-1s1-1.6,1-2.7v-1.6c-0.4,0.7-0.9,1.3-1.6,1.7
			c-0.7,0.4-1.5,0.6-2.4,0.6c-0.9,0-1.8-0.2-2.5-0.7c-0.7-0.4-1.3-1.1-1.7-1.8c-0.4-0.8-0.6-1.7-0.6-2.7c0-1,0.2-1.9,0.6-2.7
			s1-1.4,1.7-1.8c0.7-0.4,1.6-0.7,2.6-0.7c0.9,0,1.7,0.2,2.3,0.6c0.7,0.4,1.2,0.9,1.6,1.7v-2.2H334.2z M330.9,110.9
			c0.6-0.3,1-0.8,1.3-1.4c0.3-0.6,0.5-1.2,0.5-2c0-0.7-0.2-1.4-0.5-2s-0.7-1-1.3-1.4c-0.6-0.3-1.2-0.5-1.9-0.5
			c-0.7,0-1.3,0.2-1.9,0.5c-0.6,0.3-1,0.8-1.3,1.4c-0.3,0.6-0.5,1.3-0.5,2s0.2,1.4,0.5,2c0.3,0.6,0.8,1,1.3,1.4
			c0.6,0.3,1.2,0.5,1.9,0.5C329.7,111.4,330.3,111.3,330.9,110.9z"/>
		<path class="st0" d="M347.2,102.5v10.7h-1.6v-2.4c-0.7,1.6-2,2.5-4.1,2.5c-1.2,0-2.2-0.4-2.9-1.1c-0.7-0.7-1.1-1.8-1.1-3.1v-6.6
			h1.6v6.2c0,0.9,0.3,1.7,0.8,2.2c0.5,0.5,1.3,0.8,2.2,0.8c1.1,0,2-0.4,2.6-1.1s0.9-1.7,0.9-2.9v-5.2H347.2z"/>
		<path class="st0" d="M359.9,103.5c0.7,0.7,1.1,1.8,1.1,3.1v6.6h-1.6V107c0-0.9-0.3-1.7-0.8-2.2c-0.5-0.5-1.3-0.8-2.2-0.8
			c-1,0-1.9,0.3-2.5,1c-0.6,0.6-1,1.5-1.1,2.5v5.7h-1.6v-10.7h1.6v2.4c0.7-1.6,2.1-2.4,4.2-2.4C358.2,102.4,359.2,102.8,359.9,103.5
			z"/>
		<path class="st0" d="M371.3,113.2v-1.7c-0.9,1.2-2.2,1.7-3.9,1.7c-0.7,0-1.4-0.1-1.9-0.4c-0.6-0.3-1-0.7-1.3-1.2
			c-0.3-0.5-0.5-1-0.5-1.6c0-0.9,0.4-1.7,1.1-2.2c0.7-0.6,1.7-0.8,3-0.8h3.5v-0.7c0-0.8-0.2-1.4-0.7-1.9c-0.5-0.4-1.2-0.7-2.1-0.7
			c-1.1,0-2.2,0.4-3.4,1.2l-0.7-1.1c0.8-0.5,1.5-0.9,2.1-1.1s1.4-0.3,2.3-0.3c1.3,0,2.3,0.3,3,1s1.1,1.5,1.1,2.7l0,7.1H371.3z
			 M370,111.3c0.6-0.4,1.1-1,1.3-1.8v-1.3h-3.3c-1.8,0-2.7,0.6-2.7,1.7c0,0.6,0.2,1.1,0.7,1.4c0.4,0.4,1,0.5,1.8,0.5
			C368.6,111.9,369.3,111.7,370,111.3z"/>
	</g>
	<polygon class="st0" points="87.7,70.5 87.7,40 87.1,40 73.1,53.4 73.1,70.5 59.4,70.5 59.4,40 58.7,40 44.7,53.4 44.7,84.7 
		56.4,84.7 59.4,84.7 73.1,71.5 73.1,84.7 84.7,84.7 87.7,84.7 102,71 102,70.5 	"/>
</g>
<g id="Guias">
</g>
</svg>
